<svg width="15" height="15" viewBox="0 0 15 15" fill="none" xmlns="http://www.w3.org/2000/svg">
<path fill-rule="evenodd" clip-rule="evenodd" d="M3.78751 3.03679C4.77212 2.05218 6.10755 1.49902 7.50001 1.49902C8.89246 1.49902 10.2279 2.05218 11.2125 3.03679C12.1971 4.02141 12.7503 5.35683 12.7503 6.74929C12.7503 8.14175 12.1971 9.47718 11.2125 10.4618L7.50001 14.1743L3.78751 10.4618C3.29994 9.97428 2.91318 9.3955 2.64931 8.7585C2.38544 8.12151 2.24963 7.43878 2.24963 6.74929C2.24963 6.05981 2.38544 5.37707 2.64931 4.74008C2.91318 4.10309 3.29994 3.52431 3.78751 3.03679ZM7.50001 8.24929C7.89783 8.24929 8.27936 8.09126 8.56067 7.80995C8.84197 7.52865 9.00001 7.14712 9.00001 6.74929C9.00001 6.35147 8.84197 5.96994 8.56067 5.68863C8.27936 5.40733 7.89783 5.24929 7.50001 5.24929C7.10218 5.24929 6.72065 5.40733 6.43935 5.68863C6.15804 5.96994 6.00001 6.35147 6.00001 6.74929C6.00001 7.14712 6.15804 7.52865 6.43935 7.80995C6.72065 8.09126 7.10218 8.24929 7.50001 8.24929Z" fill="#94BA33"/>
</svg>
