<svg width="15" height="15" viewBox="0 0 15 15" fill="none" xmlns="http://www.w3.org/2000/svg">
<path d="M1.50226 4.41398L7.50001 7.41248L13.4978 4.41398C13.4756 4.03181 13.3081 3.67259 13.0296 3.4099C12.7512 3.1472 12.3828 3.00091 12 3.00098H3.00001C2.6172 3.00091 2.24885 3.1472 1.97039 3.4099C1.69194 3.67259 1.52446 4.03181 1.50226 4.41398Z" fill="#94BA33"/>
<path d="M13.5 6.08984L7.50001 9.08984L1.50001 6.08984V10.5013C1.50001 10.8992 1.65805 11.2807 1.93935 11.562C2.22066 11.8433 2.60219 12.0013 3.00001 12.0013H12C12.3978 12.0013 12.7794 11.8433 13.0607 11.562C13.342 11.2807 13.5 10.8992 13.5 10.5013V6.08984Z" fill="#94BA33"/>
</svg>
