<svg width="15" height="15" viewBox="0 0 15 15" fill="none" xmlns="http://www.w3.org/2000/svg">
<path d="M12.7794 12.7825H10.5581V9.30188C10.5581 8.47188 10.5413 7.40375 9.40063 7.40375C8.2425 7.40375 8.06563 8.30688 8.06563 9.24063V12.7825H5.84437V5.625H7.97813V6.60063H8.00688C8.305 6.03813 9.03 5.44438 10.1131 5.44438C12.3637 5.44438 12.78 6.92563 12.78 8.85375L12.7794 12.7825ZM3.33562 4.64563C2.62063 4.64563 2.04625 4.06687 2.04625 3.355C2.04625 2.64375 2.62125 2.06562 3.33562 2.06562C4.04812 2.06562 4.62563 2.64375 4.62563 3.355C4.62563 4.06687 4.0475 4.64563 3.33562 4.64563ZM4.44938 12.7825H2.22187V5.625H4.44938V12.7825ZM13.8906 0H1.10688C0.495 0 0 0.48375 0 1.08062V13.9194C0 14.5169 0.495 15 1.10688 15H13.8888C14.5 15 15 14.5169 15 13.9194V1.08062C15 0.48375 14.5 0 13.8888 0H13.8906Z" fill="white"/>
</svg>
