<svg width="57" height="41" viewBox="0 0 57 41" fill="none" xmlns="http://www.w3.org/2000/svg">
<path d="M55.7594 6.48794C55.1056 4.03191 53.6722 1.95309 51.2162 1.29926C46.7652 0.108971 28.5 0 28.5 0C28.5 0 10.2349 0.108971 5.78382 1.29926C3.32779 1.95309 1.90279 4.03191 1.24059 6.48794C0.0502942 10.939 0 20.1177 0 20.1177C0 20.1177 0.0502942 29.2963 1.24059 33.7474C1.89441 36.2034 3.32779 38.2822 5.78382 38.936C10.2349 40.1263 28.5 40.2353 28.5 40.2353C28.5 40.2353 46.7652 40.1263 51.2162 38.936C53.6722 38.2822 55.1056 36.2034 55.7594 33.7474C56.9497 29.2963 57 20.1177 57 20.1177C57 20.1177 56.9497 10.939 55.7594 6.48794Z" fill="#FF0033"/>
<path d="M37.7206 20.1172L22.6324 11.7349V28.4996" fill="white"/>
</svg>
