<svg width="22" height="22" viewBox="0 0 22 22" fill="none" xmlns="http://www.w3.org/2000/svg">
<path d="M7.33342 19.2492C7.81965 19.2492 8.28596 19.0561 8.62978 18.7123C8.97359 18.3684 9.16675 17.9021 9.16675 17.4159V11.9159C9.16675 11.4297 8.97359 10.9634 8.62978 10.6195C8.28596 10.2757 7.81965 10.0826 7.33342 10.0826C7.0903 10.0826 6.85714 9.98599 6.68523 9.81408C6.51332 9.64218 6.41675 9.40902 6.41675 9.1659V8.24924C6.41675 7.76301 6.6099 7.29669 6.95372 6.95287C7.29754 6.60906 7.76385 6.4159 8.25008 6.4159C8.4932 6.4159 8.72635 6.31933 8.89826 6.14742C9.07017 5.97551 9.16675 5.74235 9.16675 5.49924V3.6659C9.16675 3.42279 9.07017 3.18963 8.89826 3.01772C8.72635 2.84581 8.4932 2.74924 8.25008 2.74924C6.79139 2.74924 5.39244 3.3287 4.36099 4.36015C3.32954 5.3916 2.75008 6.79055 2.75008 8.24924V17.4159C2.75008 17.9021 2.94324 18.3684 3.28705 18.7123C3.63087 19.0561 4.09719 19.2492 4.58342 19.2492H7.33342Z" stroke="#94BA33" stroke-width="1.83071" stroke-linecap="round" stroke-linejoin="round"/>
<path d="M17.4167 19.2492C17.9029 19.2492 18.3692 19.0561 18.7131 18.7123C19.0569 18.3684 19.25 17.9021 19.25 17.4159V11.9159C19.25 11.4297 19.0569 10.9634 18.7131 10.6195C18.3692 10.2757 17.9029 10.0826 17.4167 10.0826C17.1736 10.0826 16.9404 9.98599 16.7685 9.81408C16.5966 9.64218 16.5 9.40902 16.5 9.1659V8.24924C16.5 7.76301 16.6932 7.29669 17.037 6.95287C17.3808 6.60906 17.8471 6.4159 18.3334 6.4159C18.5765 6.4159 18.8096 6.31933 18.9815 6.14742C19.1535 5.97551 19.25 5.74235 19.25 5.49924V3.6659C19.25 3.42279 19.1535 3.18963 18.9815 3.01772C18.8096 2.84581 18.5765 2.74924 18.3334 2.74924C16.8747 2.74924 15.4757 3.3287 14.4443 4.36015C13.4128 5.3916 12.8334 6.79055 12.8334 8.24924V17.4159C12.8334 17.9021 13.0265 18.3684 13.3703 18.7123C13.7142 19.0561 14.1805 19.2492 14.6667 19.2492H17.4167Z" stroke="#94BA33" stroke-width="1.83071" stroke-linecap="round" stroke-linejoin="round"/>
</svg>
