<svg width="31" height="31" viewBox="0 0 31 31" fill="none" xmlns="http://www.w3.org/2000/svg">
<path d="M17.3945 12.2192V8.38725L24.1025 15.0953L17.3945 21.8033V17.8767C14.0103 17.8164 10.4195 18.7808 8.04282 21.3211C7.57782 21.6397 6.54449 23.4997 6.99227 22.0875C7.81893 18.3589 10.1612 14.7939 13.7606 13.2439C14.9059 12.7272 16.1373 12.4 17.3859 12.2192H17.3945Z" fill="white"/>
<path d="M17.3945 12.2192V8.38725L24.1025 15.0953L17.3945 21.8033V17.8767C14.0103 17.8164 10.4195 18.7808 8.04282 21.3211C7.57782 21.6397 6.54449 23.4997 6.99227 22.0875C7.81893 18.3589 10.1612 14.7939 13.7606 13.2439C14.9059 12.7272 16.1373 12.4 17.3859 12.2192H17.3945Z" fill="white"/>
</svg>
