<svg width="10" height="10" viewBox="0 0 10 10" fill="none" xmlns="http://www.w3.org/2000/svg">
<path fill-rule="evenodd" clip-rule="evenodd" d="M8.35345 2.64655C8.44719 2.74031 8.49985 2.86746 8.49985 3.00004C8.49985 3.13263 8.44719 3.25978 8.35345 3.35354L4.35346 7.35353C4.2597 7.44727 4.13255 7.49993 3.99997 7.49993C3.86738 7.49993 3.74023 7.44727 3.64647 7.35353L1.64647 5.35354C1.55539 5.25924 1.505 5.13294 1.50613 5.00184C1.50727 4.87074 1.55986 4.74534 1.65256 4.65263C1.74527 4.55993 1.87067 4.50734 2.00177 4.5062C2.13287 4.50507 2.25917 4.55546 2.35347 4.64654L3.99997 6.29304L7.64646 2.64655C7.74022 2.55281 7.86737 2.50015 7.99996 2.50015C8.13254 2.50015 8.25969 2.55281 8.35345 2.64655Z" fill="white"/>
</svg>
