<svg width="61" height="14" viewBox="0 0 61 14" fill="none" xmlns="http://www.w3.org/2000/svg">
<path d="M10.5212 0.516392C8.88929 0.537247 5.48476 0.605024 4.42639 0.876135C3.64955 1.08468 3.07605 1.71032 2.8675 2.44024C2.50776 3.84793 2.51297 6.7728 2.51297 6.7728C2.51297 6.7728 2.50776 9.69767 2.8675 11.1054C3.07083 11.8874 3.69647 12.4609 4.42639 12.6695C5.82887 13.0344 11.4127 13.024 11.4127 13.024C11.4127 13.024 16.9913 13.0292 18.399 12.6695C19.1811 12.4609 19.7494 11.8353 19.9579 11.1054C20.3177 9.69767 20.3124 6.7728 20.3124 6.7728C20.3124 6.7728 20.3698 3.84793 19.9579 2.44024C19.7494 1.65819 19.1289 1.08468 18.399 0.876135C17.0018 0.511178 11.4179 0.516392 11.4179 0.516392C11.4179 0.516392 11.0686 0.511178 10.5264 0.516392H10.5212ZM48.1691 0.985623V12.0803H49.6185L49.7801 11.366H49.8271C49.9835 11.6267 50.1972 11.8249 50.4579 11.9813C50.7186 12.1377 51.021 12.1898 51.3338 12.1898C51.9073 12.1898 52.3713 11.9343 52.632 11.3608C52.8927 10.7873 53.0543 9.95314 53.0543 8.80613V7.55485C53.0543 6.72066 52.997 6.04289 52.8927 5.52152C52.7884 5.0575 52.632 4.69254 52.3713 4.43186C52.1106 4.22331 51.7978 4.12425 51.3807 4.12425C51.0731 4.12425 50.7655 4.22331 50.5048 4.37972C50.2494 4.53613 49.9783 4.79682 49.874 5.10964V0.990836H48.1639L48.1691 0.985623ZM22.106 1.39229L24.1393 8.6393L24.2331 12.1377H25.9589V8.6393L27.9765 1.39229H26.2195L25.4896 4.68212C25.2811 5.6675 25.1195 6.34528 25.0673 6.76237H25.0204C24.9161 6.18887 24.7545 5.51109 24.5981 4.68212L23.8838 1.39229H22.1112H22.106ZM37.5332 1.39229V2.80519H39.3059V12.1377H41.0159V2.80519H42.7886C42.7886 2.80519 42.7886 1.39229 42.7417 1.39229H37.5332ZM9.64527 4.06169L14.2854 6.76237L9.64527 9.41613V4.05648V4.06169ZM56.2555 4.10861C55.3692 4.10861 54.7488 4.41622 54.3838 4.93759C54.0241 5.45374 53.8677 6.29314 53.8677 7.49229V8.84263C53.8677 9.98964 54.0241 10.876 54.3838 11.3973C54.7488 11.9708 55.3223 12.2263 56.2086 12.2263C56.9385 12.2263 57.4494 12.0699 57.8665 11.7049C58.2315 11.34 58.4348 10.8238 58.4348 10.0939V9.83323L56.9229 9.72374C56.9229 10.2451 56.8812 10.5579 56.7769 10.7665C56.7247 10.975 56.5162 11.0897 56.2555 11.0897C56.0991 11.0897 55.9375 11.0324 55.8332 10.9281C55.7289 10.7717 55.6768 10.6205 55.6247 10.3598C55.5725 10.0991 55.5777 9.72895 55.5777 9.20759V8.80092L58.5547 8.754V7.38801C58.5547 6.55383 58.5026 5.93861 58.3462 5.46938C58.2419 5.00537 57.976 4.64041 57.6632 4.43186C57.2982 4.22331 56.8916 4.12425 56.2659 4.12425L56.2555 4.10861ZM29.9317 4.15554C29.3634 4.15554 28.8837 4.24938 28.5188 4.51007C28.1538 4.71861 27.8931 5.094 27.7419 5.61537C27.5855 6.13673 27.4813 6.79887 27.4813 7.63306V8.78528C27.4813 9.56733 27.5334 10.2347 27.6898 10.756C27.7941 11.2253 28.0548 11.6007 28.4197 11.8613C28.7795 12.122 29.3113 12.2159 29.8848 12.268C30.5052 12.268 30.9692 12.122 31.3342 11.9135C31.6939 11.7049 31.9024 11.3452 32.111 10.8238C32.3143 10.3025 32.3665 9.62468 32.3665 8.79049V7.63827C32.3665 6.80408 32.2622 6.14195 32.111 5.62058C31.9546 5.15656 31.6939 4.77596 31.3342 4.51528C30.9692 4.2546 30.5104 4.16075 29.9369 4.16075L29.9317 4.15554ZM36.2819 4.20246V10.4067C36.2298 10.5631 36.1307 10.657 35.9743 10.7613C35.8701 10.8655 35.7084 10.9229 35.552 10.9229C35.3956 10.9229 35.2496 10.8707 35.1975 10.7143C35.1454 10.5579 35.1036 10.3494 35.1036 9.98442V4.2546H33.331V10.0991C33.331 10.829 33.4248 11.3452 33.6855 11.7101C33.941 12.0751 34.3164 12.2315 34.8377 12.2315C35.5677 12.2315 36.1307 11.8718 36.4957 11.1419H36.5426L36.7042 12.0699H38.0546V4.2546C38.0546 4.2546 36.2819 4.2546 36.2819 4.20767V4.20246ZM45.3068 4.20246V10.4067C45.2547 10.5631 45.1556 10.657 44.9992 10.7613C44.8949 10.8655 44.7333 10.9229 44.5769 10.9229C44.4205 10.9229 44.2745 10.8707 44.2224 10.7143C44.1702 10.5579 44.1129 10.3494 44.1129 9.98442V4.2546H42.3402V10.0991C42.3402 10.829 42.4497 11.3452 42.7104 11.7101C42.9711 12.0751 43.3256 12.2315 43.847 12.2315C44.5717 12.2315 45.1556 11.8718 45.5206 11.1419H45.5675L45.7135 12.0699H47.0795V4.2546C47.0795 4.2546 45.3068 4.2546 45.3068 4.20767V4.20246ZM56.2034 5.29212C56.4119 5.29212 56.5058 5.34947 56.61 5.45374C56.7143 5.61015 56.7665 5.76135 56.8186 6.02203C56.8707 6.28272 56.8655 6.65289 56.8655 7.17425V7.74254H55.5621V7.17425C55.5621 6.65289 55.5621 6.28272 55.609 6.02203C55.609 5.81348 55.6664 5.60494 55.7706 5.50066C55.8749 5.34425 56.0365 5.29212 56.193 5.29212H56.2034ZM29.8795 5.35468C30.1402 5.35468 30.2966 5.44853 30.4009 5.70921C30.5 5.96989 30.5469 6.38699 30.5469 6.96049V9.40049C30.5469 9.974 30.5052 10.3911 30.4009 10.6518C30.2966 10.9125 30.1402 11.0063 29.8795 11.0063C29.6189 11.0063 29.4677 10.9125 29.3634 10.6518C29.2591 10.3911 29.2018 9.974 29.2018 9.40049V6.96049C29.2018 6.38699 29.2591 5.96989 29.3634 5.70921C29.4677 5.44853 29.6189 5.35468 29.8795 5.35468ZM50.5674 5.4016C50.7238 5.4016 50.8854 5.45374 50.9897 5.61015C51.094 5.76656 51.1305 5.95947 51.1826 6.32442C51.2347 6.63725 51.2452 7.11169 51.2452 7.73733L51.2921 8.72793C51.2921 9.30143 51.2921 9.76545 51.2452 10.0783C51.193 10.3911 51.1461 10.6413 50.9897 10.7456C50.8854 10.902 50.729 10.9542 50.5205 10.9542C50.3641 10.9542 50.2546 10.9125 50.0982 10.8603C49.9939 10.8082 49.8948 10.7091 49.7906 10.5527V6.12109C49.8427 5.91254 49.9418 5.75613 50.0982 5.59972C50.2546 5.44331 50.411 5.39118 50.5674 5.39118V5.4016Z" fill="white"/>
<path d="M10.5212 0.516392C8.88929 0.537247 5.48476 0.605024 4.42639 0.876135C3.64955 1.08468 3.07605 1.71032 2.8675 2.44024C2.50776 3.84793 2.51297 6.7728 2.51297 6.7728C2.51297 6.7728 2.50776 9.69767 2.8675 11.1054C3.07083 11.8874 3.69647 12.4609 4.42639 12.6695C5.82887 13.0344 11.4127 13.024 11.4127 13.024C11.4127 13.024 16.9913 13.0292 18.399 12.6695C19.1811 12.4609 19.7494 11.8353 19.9579 11.1054C20.3177 9.69767 20.3124 6.7728 20.3124 6.7728C20.3124 6.7728 20.3698 3.84793 19.9579 2.44024C19.7494 1.65819 19.1289 1.08468 18.399 0.876135C17.0018 0.511178 11.4179 0.516392 11.4179 0.516392C11.4179 0.516392 11.0686 0.511178 10.5264 0.516392H10.5212ZM48.1691 0.985623V12.0803H49.6185L49.7801 11.366H49.8271C49.9835 11.6267 50.1972 11.8249 50.4579 11.9813C50.7186 12.1377 51.021 12.1898 51.3338 12.1898C51.9073 12.1898 52.3713 11.9343 52.632 11.3608C52.8927 10.7873 53.0543 9.95314 53.0543 8.80613V7.55485C53.0543 6.72066 52.997 6.04289 52.8927 5.52152C52.7884 5.0575 52.632 4.69254 52.3713 4.43186C52.1106 4.22331 51.7978 4.12425 51.3807 4.12425C51.0731 4.12425 50.7655 4.22331 50.5048 4.37972C50.2494 4.53613 49.9783 4.79682 49.874 5.10964V0.990836H48.1639L48.1691 0.985623ZM22.106 1.39229L24.1393 8.6393L24.2331 12.1377H25.9589V8.6393L27.9765 1.39229H26.2195L25.4896 4.68212C25.2811 5.6675 25.1195 6.34528 25.0673 6.76237H25.0204C24.9161 6.18887 24.7545 5.51109 24.5981 4.68212L23.8838 1.39229H22.1112H22.106ZM37.5332 1.39229V2.80519H39.3059V12.1377H41.0159V2.80519H42.7886C42.7886 2.80519 42.7886 1.39229 42.7417 1.39229H37.5332ZM9.64527 4.06169L14.2854 6.76237L9.64527 9.41613V4.05648V4.06169ZM56.2555 4.10861C55.3692 4.10861 54.7488 4.41622 54.3838 4.93759C54.0241 5.45374 53.8677 6.29314 53.8677 7.49229V8.84263C53.8677 9.98964 54.0241 10.876 54.3838 11.3973C54.7488 11.9708 55.3223 12.2263 56.2086 12.2263C56.9385 12.2263 57.4494 12.0699 57.8665 11.7049C58.2315 11.34 58.4348 10.8238 58.4348 10.0939V9.83323L56.9229 9.72374C56.9229 10.2451 56.8812 10.5579 56.7769 10.7665C56.7247 10.975 56.5162 11.0897 56.2555 11.0897C56.0991 11.0897 55.9375 11.0324 55.8332 10.9281C55.7289 10.7717 55.6768 10.6205 55.6247 10.3598C55.5725 10.0991 55.5777 9.72895 55.5777 9.20759V8.80092L58.5547 8.754V7.38801C58.5547 6.55383 58.5026 5.93861 58.3462 5.46938C58.2419 5.00537 57.976 4.64041 57.6632 4.43186C57.2982 4.22331 56.8916 4.12425 56.2659 4.12425L56.2555 4.10861ZM29.9317 4.15554C29.3634 4.15554 28.8837 4.24938 28.5188 4.51007C28.1538 4.71861 27.8931 5.094 27.7419 5.61537C27.5855 6.13673 27.4813 6.79887 27.4813 7.63306V8.78528C27.4813 9.56733 27.5334 10.2347 27.6898 10.756C27.7941 11.2253 28.0548 11.6007 28.4197 11.8613C28.7795 12.122 29.3113 12.2159 29.8848 12.268C30.5052 12.268 30.9692 12.122 31.3342 11.9135C31.6939 11.7049 31.9024 11.3452 32.111 10.8238C32.3143 10.3025 32.3665 9.62468 32.3665 8.79049V7.63827C32.3665 6.80408 32.2622 6.14195 32.111 5.62058C31.9546 5.15656 31.6939 4.77596 31.3342 4.51528C30.9692 4.2546 30.5104 4.16075 29.9369 4.16075L29.9317 4.15554ZM36.2819 4.20246V10.4067C36.2298 10.5631 36.1307 10.657 35.9743 10.7613C35.8701 10.8655 35.7084 10.9229 35.552 10.9229C35.3956 10.9229 35.2496 10.8707 35.1975 10.7143C35.1454 10.5579 35.1036 10.3494 35.1036 9.98442V4.2546H33.331V10.0991C33.331 10.829 33.4248 11.3452 33.6855 11.7101C33.941 12.0751 34.3164 12.2315 34.8377 12.2315C35.5677 12.2315 36.1307 11.8718 36.4957 11.1419H36.5426L36.7042 12.0699H38.0546V4.2546C38.0546 4.2546 36.2819 4.2546 36.2819 4.20767V4.20246ZM45.3068 4.20246V10.4067C45.2547 10.5631 45.1556 10.657 44.9992 10.7613C44.8949 10.8655 44.7333 10.9229 44.5769 10.9229C44.4205 10.9229 44.2745 10.8707 44.2224 10.7143C44.1702 10.5579 44.1129 10.3494 44.1129 9.98442V4.2546H42.3402V10.0991C42.3402 10.829 42.4497 11.3452 42.7104 11.7101C42.9711 12.0751 43.3256 12.2315 43.847 12.2315C44.5717 12.2315 45.1556 11.8718 45.5206 11.1419H45.5675L45.7135 12.0699H47.0795V4.2546C47.0795 4.2546 45.3068 4.2546 45.3068 4.20767V4.20246ZM56.2034 5.29212C56.4119 5.29212 56.5058 5.34947 56.61 5.45374C56.7143 5.61015 56.7665 5.76135 56.8186 6.02203C56.8707 6.28272 56.8655 6.65289 56.8655 7.17425V7.74254H55.5621V7.17425C55.5621 6.65289 55.5621 6.28272 55.609 6.02203C55.609 5.81348 55.6664 5.60494 55.7706 5.50066C55.8749 5.34425 56.0365 5.29212 56.193 5.29212H56.2034ZM29.8795 5.35468C30.1402 5.35468 30.2966 5.44853 30.4009 5.70921C30.5 5.96989 30.5469 6.38699 30.5469 6.96049V9.40049C30.5469 9.974 30.5052 10.3911 30.4009 10.6518C30.2966 10.9125 30.1402 11.0063 29.8795 11.0063C29.6189 11.0063 29.4677 10.9125 29.3634 10.6518C29.2591 10.3911 29.2018 9.974 29.2018 9.40049V6.96049C29.2018 6.38699 29.2591 5.96989 29.3634 5.70921C29.4677 5.44853 29.6189 5.35468 29.8795 5.35468ZM50.5674 5.4016C50.7238 5.4016 50.8854 5.45374 50.9897 5.61015C51.094 5.76656 51.1305 5.95947 51.1826 6.32442C51.2347 6.63725 51.2452 7.11169 51.2452 7.73733L51.2921 8.72793C51.2921 9.30143 51.2921 9.76545 51.2452 10.0783C51.193 10.3911 51.1461 10.6413 50.9897 10.7456C50.8854 10.902 50.729 10.9542 50.5205 10.9542C50.3641 10.9542 50.2546 10.9125 50.0982 10.8603C49.9939 10.8082 49.8948 10.7091 49.7906 10.5527V6.12109C49.8427 5.91254 49.9418 5.75613 50.0982 5.59972C50.2546 5.44331 50.411 5.39118 50.5674 5.39118V5.4016Z" fill="white"/>
</svg>
