<svg width="19" height="19" viewBox="0 0 19 19" fill="none" xmlns="http://www.w3.org/2000/svg">
<path fill-rule="evenodd" clip-rule="evenodd" d="M9.77837 3.12855C9.95652 2.95045 10.1981 2.8504 10.45 2.8504C10.7019 2.8504 10.9435 2.95045 11.1217 3.12855L16.8217 8.82855C16.9998 9.0067 17.0998 9.24829 17.0998 9.5002C17.0998 9.7521 16.9998 9.9937 16.8217 10.1718L11.1217 15.8718C10.9425 16.0449 10.7025 16.1407 10.4534 16.1385C10.2044 16.1363 9.96608 16.0364 9.78994 15.8603C9.61381 15.6841 9.5139 15.4459 9.51173 15.1968C9.50957 14.9477 9.60532 14.7077 9.77837 14.5285L13.8567 10.4502H2.85002C2.59807 10.4502 2.35643 10.3501 2.17827 10.1719C2.00011 9.99379 1.90002 9.75215 1.90002 9.5002C1.90002 9.24824 2.00011 9.00661 2.17827 8.82845C2.35643 8.65029 2.59807 8.5502 2.85002 8.5502H13.8567L9.77837 4.47185C9.60027 4.2937 9.50022 4.0521 9.50022 3.8002C9.50022 3.54829 9.60027 3.3067 9.77837 3.12855Z" fill="white"/>
</svg>
