<svg width="15" height="15" viewBox="0 0 15 15" fill="none" xmlns="http://www.w3.org/2000/svg">
<path d="M14.6862 3.86625C14.6024 3.55757 14.4393 3.27618 14.2131 3.05001C13.9869 2.82383 13.7056 2.66072 13.3969 2.57688C12.2719 2.1875 7.5 2.1875 7.5 2.1875C7.5 2.1875 2.72813 2.1875 1.60313 2.57688C1.29422 2.66053 1.01257 2.82355 0.786159 3.04974C0.55975 3.27593 0.396457 3.55742 0.3125 3.86625C0 5 0 7.5 0 7.5C0 7.5 0 10 0.3125 11.1337C0.396348 11.4424 0.559452 11.7238 0.78563 11.95C1.01181 12.1762 1.2932 12.3393 1.60187 12.4231C2.72813 12.8125 7.5 12.8125 7.5 12.8125C7.5 12.8125 12.2719 12.8125 13.3969 12.4231C13.7056 12.3393 13.9869 12.1762 14.2131 11.95C14.4393 11.7238 14.6024 11.4424 14.6862 11.1337C15 10 15 7.5 15 7.5C15 7.5 15 5 14.6862 3.86625ZM6.09375 9.6875V5.3125L10.1562 7.5L6.09375 9.6875Z" fill="white"/>
</svg>
