<svg width="15" height="15" viewBox="0 0 15 15" fill="none" xmlns="http://www.w3.org/2000/svg">
<path fill-rule="evenodd" clip-rule="evenodd" d="M3.00001 3C2.60219 3 2.22066 3.15804 1.93935 3.43934C1.65805 3.72064 1.50001 4.10218 1.50001 4.5V10.5C1.50001 10.8978 1.65805 11.2794 1.93935 11.5607C2.22066 11.842 2.60219 12 3.00001 12H12C12.3978 12 12.7794 11.842 13.0607 11.5607C13.342 11.2794 13.5 10.8978 13.5 10.5V4.5C13.5 4.10218 13.342 3.72064 13.0607 3.43934C12.7794 3.15804 12.3978 3 12 3H3.00001ZM5.25001 6.75C5.25001 6.55109 5.32903 6.36032 5.46968 6.21967C5.61034 6.07902 5.8011 6 6.00001 6H9.00001C9.19893 6 9.38969 6.07902 9.53035 6.21967C9.671 6.36032 9.75001 6.55109 9.75001 6.75C9.75001 6.94891 9.671 7.13968 9.53035 7.28033C9.38969 7.42098 9.19893 7.5 9.00001 7.5H6.00001C5.8011 7.5 5.61034 7.42098 5.46968 7.28033C5.32903 7.13968 5.25001 6.94891 5.25001 6.75ZM5.25001 9C5.25001 8.80109 5.32903 8.61032 5.46968 8.46967C5.61034 8.32902 5.8011 8.25 6.00001 8.25H9.00001C9.19893 8.25 9.38969 8.32902 9.53035 8.46967C9.671 8.61032 9.75001 8.80109 9.75001 9C9.75001 9.19891 9.671 9.38968 9.53035 9.53033C9.38969 9.67098 9.19893 9.75 9.00001 9.75H6.00001C5.8011 9.75 5.61034 9.67098 5.46968 9.53033C5.32903 9.38968 5.25001 9.19891 5.25001 9Z" fill="#94BA33"/>
</svg>
