<svg width="15" height="15" viewBox="0 0 15 15" fill="none" xmlns="http://www.w3.org/2000/svg">
<path d="M15 7.54588C15 3.40402 11.6419 0.0458983 7.50002 0.0458983C3.35815 0.0458983 3.05175e-05 3.40402 3.05175e-05 7.54588C3.05175e-05 11.2896 2.74253 14.3921 6.32814 14.9546V9.714H4.42377V7.54526H6.32814V5.89401C6.32814 4.01464 7.44814 2.97589 9.16126 2.97589C9.98126 2.97589 10.84 3.12277 10.84 3.12277V4.96839H9.89376C8.96189 4.96839 8.67126 5.54651 8.67126 6.13964V7.54588H10.7513L10.4188 9.71463H8.67126V14.9552C12.2575 14.3921 15 11.289 15 7.54588Z" fill="white"/>
</svg>
